<?xml version="1.0" standalone="no"?>
<!DOCTYPE svg PUBLIC "-//W3C//DTD SVG 1.1//EN" "http://www.w3.org/Graphics/SVG/1.1/DTD/svg11.dtd">
<!--Generator: Xara Designer (www.xara.com), SVG filter version: 6.1.0.16-->
<svg stroke-width="0.501" stroke-linejoin="bevel" fill-rule="evenodd" xmlns:xlink="http://www.w3.org/1999/xlink" xmlns="http://www.w3.org/2000/svg" version="1.1" overflow="visible" width="36pt" height="36pt" viewBox="0 0 36 36">
 <defs>
	</defs>
 <g id="Document" fill="none" stroke="black" font-family="Times New Roman" font-size="16" transform="scale(1 -1)">
  <g id="Spread" transform="translate(0 -36)">
   <g id="Layer 1">
    <g id="Group" fill-rule="nonzero" stroke-linejoin="miter" stroke="none" fill="#4c4c4c" stroke-width="0.11" stroke-miterlimit="79.8403193612775">
     <path d="M 0,25.191 C 0.114,26.037 0.206,26.879 0.36,27.721 C 1.221,32.459 4.577,35.68 9.364,35.843 C 15.144,36.044 20.938,36.059 26.71,35.843 C 31.927,35.662 35.71,31.794 35.872,26.57 C 36.044,21.029 36.044,15.471 35.872,9.93 C 35.71,4.706 31.927,0.845 26.71,0.651 C 20.938,0.445 15.144,0.441 9.368,0.657 C 4.147,0.852 0.536,4.724 0.195,9.953 C 0.157,10.404 0.07,10.86 0,11.305 C 0,15.937 0,20.567 0,25.191 Z M 18.003,3.746 C 20.647,3.746 23.29,3.666 25.93,3.768 C 30.063,3.919 32.614,6.389 32.713,10.521 C 32.828,15.67 32.828,20.827 32.713,25.977 C 32.614,30.111 30.063,32.637 25.93,32.724 C 20.681,32.838 15.427,32.838 10.184,32.724 C 6.073,32.639 3.522,30.166 3.412,26.074 C 3.272,20.86 3.272,15.64 3.412,10.423 C 3.522,6.334 6.073,3.919 10.184,3.768 C 12.788,3.666 15.397,3.746 18.003,3.746 Z M 18.003,3.746"/>
     <path d="M 18.003,27.422 C 12.934,27.422 8.828,23.313 8.828,18.249 C 8.828,13.176 12.934,9.077 18.003,9.077 C 23.067,9.077 27.177,13.176 27.177,18.249 C 27.177,23.313 23.067,27.422 18.003,27.422 Z M 18.003,12.235 C 14.676,12.235 11.981,14.926 11.981,18.249 C 11.981,21.567 14.676,24.258 18.003,24.258 C 21.324,24.258 24.012,21.567 24.012,18.249 C 24.012,14.926 21.324,12.235 18.003,12.235 Z M 18.003,12.235"/>
     <path d="M 29.897,27.839 C 29.897,26.636 28.912,25.659 27.71,25.659 C 26.504,25.659 25.53,26.636 25.53,27.839 C 25.53,29.041 26.504,30.022 27.71,30.022 C 28.912,30.022 29.897,29.041 29.897,27.839 Z M 29.897,27.839"/>
    </g>
   </g>
  </g>
 </g>
</svg>
