<?xml version="1.0" standalone="no"?>
<!DOCTYPE svg PUBLIC "-//W3C//DTD SVG 1.1//EN" "http://www.w3.org/Graphics/SVG/1.1/DTD/svg11.dtd">
<!--Generator: Xara Designer (www.xara.com), SVG filter version: 6.1.0.16-->
<svg stroke-width="0.501" stroke-linejoin="bevel" fill-rule="evenodd" xmlns:xlink="http://www.w3.org/1999/xlink" xmlns="http://www.w3.org/2000/svg" version="1.1" overflow="visible" width="36pt" height="44.636pt" viewBox="0 0 36 44.636">
 <defs>
	</defs>
 <g id="Document" fill="none" stroke="black" font-family="Times New Roman" font-size="16" transform="scale(1 -1)">
  <g id="Spread" transform="translate(0 -44.636)">
   <g id="Layer 1">
    <g id="Group">
     <path d="M 0,27.158 C 0,36.805 7.831,44.636 17.48,44.636 C 27.127,44.636 34.958,36.805 34.958,27.158 C 34.958,17.509 28.378,10.908 17.48,0.01 C 8.043,9.447 0,17.509 0,27.158 Z" fill="#ff2400" stroke="none" stroke-width="0.35" marker-start="none" marker-end="none" stroke-miterlimit="79.8403193612775"/>
     <path d="M 7.121,26.93 C 7.121,32.738 11.835,37.452 17.643,37.452 C 23.451,37.452 28.165,32.738 28.165,26.93 C 28.165,21.122 23.451,16.408 17.643,16.408 C 11.835,16.408 7.121,21.122 7.121,26.93 Z" stroke="none" fill="#ffffff" stroke-width="0.413" marker-start="none" marker-end="none" stroke-miterlimit="79.8403193612775"/>
     <path d="M 12.673,27.728 L 17.13,23.457 L 22.886,30.575" fill="none" stroke="#333333" stroke-width="1.238" stroke-miterlimit="79.8403193612775"/>
    </g>
   </g>
  </g>
 </g>
</svg>
