<?xml version="1.0" standalone="no"?>
<!DOCTYPE svg PUBLIC "-//W3C//DTD SVG 1.1//EN" "http://www.w3.org/Graphics/SVG/1.1/DTD/svg11.dtd">
<!--Generator: Xara Designer (www.xara.com), SVG filter version: 6.1.0.16-->
<svg stroke-width="0.501" stroke-linejoin="bevel" fill-rule="evenodd" xmlns:xlink="http://www.w3.org/1999/xlink" xmlns="http://www.w3.org/2000/svg" version="1.1" overflow="visible" width="36pt" height="45.675pt" viewBox="0 0 36 45.675">
 <defs>
	</defs>
 <g id="Document" fill="none" stroke="black" font-family="Times New Roman" font-size="16" transform="scale(1 -1)">
  <g id="Spread" transform="translate(0 -45.675)">
   <g id="Layer 1">
    <g id="Group" fill-rule="nonzero" stroke-linejoin="miter" stroke="none" fill="#4c4c4c" stroke-width="0.086" stroke-miterlimit="79.8403193612775">
     <path d="M 15.87,22.984 C 9.618,22.984 4.527,28.076 4.527,34.331 C 4.527,40.587 9.618,45.675 15.87,45.675 C 22.13,45.675 27.218,40.587 27.218,34.331 C 27.218,28.076 22.13,22.984 15.87,22.984 Z M 15.87,40.005 C 12.745,40.005 10.205,37.461 10.205,34.331 C 10.205,31.206 12.745,28.662 15.87,28.662 C 19,28.662 21.548,31.206 21.548,34.331 C 21.548,37.461 19,40.005 15.87,40.005 Z" marker-start="none" marker-end="none"/>
     <path d="M 0.829,23.299 C 1.939,24.407 3.729,24.407 4.838,23.299 C 10.919,17.217 20.822,17.217 26.903,23.299 C 28.015,24.407 29.802,24.407 30.915,23.299 C 32.023,22.19 32.023,20.398 30.915,19.283 C 27.388,15.759 22.913,13.75 18.299,13.219 L 26.387,5.135 C 27.496,4.027 27.496,2.232 26.387,1.124 C 25.275,0.014 23.488,0.014 22.375,1.124 L 15.87,7.627 L 9.37,1.124 C 8.813,0.574 8.091,0.297 7.363,0.297 C 6.637,0.297 5.91,0.574 5.358,1.124 C 4.252,2.232 4.252,4.027 5.358,5.135 L 13.442,13.219 C 8.836,13.75 4.359,15.759 0.829,19.283 C -0.276,20.392 -0.276,22.19 0.829,23.299 Z" marker-start="none" marker-end="none"/>
    </g>
   </g>
  </g>
 </g>
</svg>
