<?xml version="1.0" encoding="utf-8"?>
<!-- Generator: Adobe Illustrator 17.0.0, SVG Export Plug-In . SVG Version: 6.00 Build 0)  -->
<!DOCTYPE svg PUBLIC "-//W3C//DTD SVG 1.1//EN" "http://www.w3.org/Graphics/SVG/1.1/DTD/svg11.dtd">
<svg version="1.1" id="Capa_1" xmlns="http://www.w3.org/2000/svg" xmlns:xlink="http://www.w3.org/1999/xlink" x="0px" y="0px"
	 width="615px" height="614.956px" viewBox="1498.915 720.548 615 614.956" enable-background="new 1498.915 720.548 615 614.956"
	 xml:space="preserve">
<g>
	<path fill="#fff" d="M2098.016,1191.653l-123.867-82.605c-6.438-4.259-13.9-6.507-21.588-6.507c-12.133,0-23.378,5.473-30.851,15.016
		l-36.088,46.401c-2.391,3.153-6.002,4.944-9.927,4.944c-2.098,0-4.181-0.541-6.022-1.564l-6.872-3.788
		c-22.585-12.31-50.677-27.622-107.43-84.396c-56.735-56.755-72.075-84.847-84.401-107.42l-3.766-6.869
		c-3.042-5.402-1.63-12.276,3.27-16.021l46.382-36.087c7.777-6.094,12.929-14.812,14.513-24.554
		c1.585-9.743-0.539-19.644-5.979-27.879l-82.615-123.882c-7.24-10.89-19.381-17.393-32.476-17.393h0
		c-7.049,0-13.981,1.927-20.047,5.574l-51.798,31.115c-17.005,9.997-29.323,25.984-34.661,45.002
		c-18.869,68.749-4.873,187.168,168.93,360.991c63.355,63.351,124.242,110.212,180.97,139.284
		c46.599,23.881,90.757,35.989,131.247,35.989l0.773,0.002c16.187,0,32.318-2.142,47.943-6.367
		c19.051-5.34,35.039-17.659,45.045-34.695l31.13-51.74C2120.603,1226.302,2115.414,1203.22,2098.016,1191.653z M1952.561,1105.54
		c0.083,0,0.167,0.008,0.25,0.009c-0.204-0.001-0.407-0.001-0.611,0.001C1952.321,1105.549,1952.441,1105.54,1952.561,1105.54z
		 M1876.001,1192.328c-0.121,0.001-0.242,0.01-0.363,0.01c-0.069,0-0.138-0.006-0.207-0.006
		C1875.621,1192.333,1875.811,1192.33,1876.001,1192.328z M1868.215,1169.96c0.002,0.001,0.004,0.002,0.005,0.003
		C1868.219,1169.962,1868.217,1169.961,1868.215,1169.96l-5.064-2.792L1868.215,1169.96z M1610.297,722.048
		c0.133,0,0.265,0.011,0.398,0.012c-0.187-0.002-0.373-0.008-0.56-0.007C1610.189,722.053,1610.243,722.048,1610.297,722.048z
		 M1539.997,758.308l51.798-31.115L1539.997,758.308c-1.526,0.897-3.014,1.846-4.461,2.845
		C1536.984,760.154,1538.472,759.205,1539.997,758.308z M1544.215,780.104c-1.975,1.575-3.828,3.286-5.549,5.116
		C1540.386,783.389,1542.24,781.679,1544.215,780.104z M1985.711,1334.004c-0.257,0-0.516,0-0.773-0.002
		c1.2,0.005,2.398-0.026,3.596-0.045C1987.593,1333.972,1986.653,1334.004,1985.711,1334.004z M2056.038,1282.446
		c-6.525,11.167-16.944,19.242-29.353,22.767c-13.24,3.635-27.424,5.481-42.134,5.481c-83.289,0-181.921-56.401-293.158-167.638
		c-164.844-164.844-179.163-273.333-162.148-335.317c3.523-12.399,11.609-22.832,22.76-29.351l51.828-31.092
		c1.967-1.184,4.209-1.808,6.489-1.808c4.238,0,8.166,2.104,10.509,5.628l44.875,67.373l37.664,56.49
		c3.615,5.467,2.405,12.932-2.761,16.985l-46.363,36.064c-7.379,5.642-12.491,13.782-14.373,22.903
		c-1.882,9.122-0.41,18.62,4.145,26.744l3.671,6.67c13.131,24.083,29.462,54.035,88.908,113.471
		c59.446,59.436,89.387,75.766,113.444,88.888l6.714,3.699c5.751,3.225,12.288,4.935,18.883,4.935
		c12.165,0,23.377-5.538,30.76-15.193l36.056-46.353c2.416-3.078,6.062-4.849,9.995-4.85c2.49,0,4.908,0.728,6.994,2.105
		l123.849,82.6c5.637,3.742,7.315,11.205,3.825,16.995L2056.038,1282.446z M1642.263,962.462c-0.109-1.047-0.171-2.096-0.187-3.143
		C1642.092,960.366,1642.154,961.415,1642.263,962.462z M1650.317,982.899l-3.682-6.69c-0.407-0.726-0.787-1.462-1.138-2.204
		c-0.703-1.486-1.296-3.001-1.78-4.537c0.484,1.535,1.077,3.051,1.78,4.537c0.352,0.743,0.731,1.478,1.138,2.204L1650.317,982.899z"
		/>
</g>
</svg>
