<svg xmlns="http://www.w3.org/2000/svg" viewBox="0 0 388.17 388.17"><defs><style>.cls-1{fill:#fff;}.cls-2{fill:#ff3400;}</style></defs><title>phone_icon</title><g id="Слой_2" data-name="Слой 2"><g id="Слой_1-2" data-name="Слой 1"><path class="cls-1" d="M131,38S45,93,44,105,33,236,53,254s79,79,87,80,65,11,73,13,81-35,90-40,38-54,38-67-7-56-17-72-47-77-76-97S131,38,131,38Z"/><path class="cls-2" d="M194.09,0C86.9,0,0,86.9,0,194.09S86.9,388.17,194.09,388.17s194.08-86.9,194.08-194.08S301.27,0,194.09,0ZM296.57,283.19,281,298.74c-2.77,2.77-10.9,4.5-11.16,4.5a183.3,183.3,0,0,1-185-185.39s1.78-7.91,4.55-10.66L105,91.65c5.68-5.71,16.61-8.3,24.26-5.73L132.53,87c7.63,2.56,15.64,11,17.75,18.77l7.82,28.69c2.11,7.8-.74,18.88-6.42,24.57L141.3,169.4a110.23,110.23,0,0,0,77.5,77.52l10.37-10.38c5.71-5.71,16.8-8.55,24.57-6.45l28.69,7.85c7.77,2.13,16.21,10.09,18.77,17.72l1.09,3.32c2.54,7.63,0,18.55-5.71,24.21Zm0,0"/></g></g></svg>