<?xml version="1.0" standalone="no"?>
<!DOCTYPE svg PUBLIC "-//W3C//DTD SVG 1.1//EN" "http://www.w3.org/Graphics/SVG/1.1/DTD/svg11.dtd">
<!--Generator: Xara Designer (www.xara.com), SVG filter version: 6.1.0.16-->
<svg stroke-width="0.501" stroke-linejoin="bevel" fill-rule="evenodd" xmlns:xlink="http://www.w3.org/1999/xlink" xmlns="http://www.w3.org/2000/svg" version="1.1" overflow="visible" width="53.219pt" height="36pt" viewBox="0 0 53.219 36">
 <defs>
	</defs>
 <g id="Document" fill="none" stroke="black" font-family="Times New Roman" font-size="16" transform="scale(1 -1)">
  <g id="Spread" transform="translate(0 -36)">
   <g id="Layer 1">
    <path d="M 26.006,6.109 L 29.188,6.109 C 29.188,6.109 30.146,6.22 30.639,6.746 C 31.092,7.233 31.076,8.141 31.076,8.141 C 31.076,8.141 31.015,12.414 32.991,13.045 C 34.95,13.659 37.458,8.915 40.114,7.089 C 42.124,5.705 43.646,6.01 43.646,6.01 L 50.753,6.109 C 50.753,6.109 54.472,6.336 52.712,9.264 C 52.574,9.508 51.683,11.428 47.426,15.38 C 42.971,19.521 43.568,18.845 48.937,25.997 C 52.208,30.358 53.515,33.02 53.105,34.155 C 52.718,35.24 50.31,34.952 50.31,34.952 L 42.312,34.908 C 42.312,34.908 41.72,34.985 41.282,34.725 C 40.851,34.471 40.574,33.867 40.574,33.867 C 40.574,33.867 39.306,30.496 37.618,27.629 C 34.054,21.574 32.626,21.259 32.044,21.629 C 30.694,22.509 31.032,25.15 31.032,27.026 C 31.032,32.893 31.923,35.334 29.299,35.971 C 28.43,36.175 27.788,36.319 25.563,36.341 C 22.712,36.375 20.288,36.336 18.921,35.666 C 18.013,35.218 17.31,34.222 17.736,34.166 C 18.268,34.094 19.463,33.845 20.1,32.982 C 20.925,31.864 20.891,29.356 20.891,29.356 C 20.891,29.356 21.362,22.454 19.79,21.596 C 18.711,21.009 17.233,22.205 14.056,27.696 C 12.428,30.513 11.194,33.624 11.194,33.624 C 11.194,33.624 10.956,34.199 10.535,34.509 C 10.026,34.886 9.307,35.008 9.307,35.008 L 1.701,34.958 C 1.701,34.958 0.561,34.925 0.141,34.426 C -0.23,33.989 0.113,33.076 0.113,33.076 C 0.113,33.076 6.063,19.144 12.805,12.126 C 18.987,5.689 26.006,6.109 26.006,6.109 L 26.006,6.109 Z" fill-rule="nonzero" stroke-linejoin="miter" stroke="none" fill="#4c4c4c" stroke-width="0.1" marker-start="none" marker-end="none" stroke-miterlimit="79.8403193612775"/>
   </g>
  </g>
 </g>
</svg>
