<?xml version="1.0" standalone="no"?>
<!DOCTYPE svg PUBLIC "-//W3C//DTD SVG 1.1//EN" "http://www.w3.org/Graphics/SVG/1.1/DTD/svg11.dtd">
<!--Generator: Xara Designer (www.xara.com), SVG filter version: 6.1.0.16-->
<svg stroke-width="0.501" stroke-linejoin="bevel" fill-rule="evenodd" xmlns:xlink="http://www.w3.org/1999/xlink" xmlns="http://www.w3.org/2000/svg" version="1.1" overflow="visible" width="36pt" height="36pt" viewBox="0 0 36 36">
 <defs>
  <linearGradient id="LinearGradient" gradientUnits="userSpaceOnUse" x1="0" y1="0" x2="43.896" y2="-44.753" gradientTransform="translate(-4.485 41.698)">
   <stop offset="0" stop-color="#ffffff"/>
   <stop offset="1" stop-color="#b2b2b2"/>
  </linearGradient>
  <linearGradient id="LinearGradient_1" gradientUnits="userSpaceOnUse" x1="0" y1="0" x2="-24.943" y2="36.191" gradientTransform="translate(28.177 -1.594)">
   <stop offset="0" stop-color="#cccccc"/>
   <stop offset="1" stop-color="#ffffff"/>
  </linearGradient>
  <linearGradient id="LinearGradient_2" gradientUnits="userSpaceOnUse" x1="0" y1="0" x2="22.803" y2="-36.145" gradientTransform="translate(-0.873 37.816)">
   <stop offset="0" stop-color="#0069c5"/>
   <stop offset="1" stop-color="#0069c5"/>
  </linearGradient>
 </defs>
 <g id="Document" fill="none" stroke="black" font-family="Times New Roman" font-size="16" transform="scale(1 -1)">
  <g id="Spread" transform="translate(0 -36)">
   <g id="Layer 1">
    <g id="Group" stroke="none">
     <path d="M 0,20.473 C 0,29.044 6.956,36 15.527,36 C 24.098,36 31.054,29.044 31.054,20.473 C 31.054,11.902 24.098,4.946 15.527,4.946 C 6.956,4.946 0,11.902 0,20.473 Z" stroke-width="0.619" marker-start="none" marker-end="none" stroke-miterlimit="79.8403193612775" fill="url(#LinearGradient)"/>
     <path d="M 30.69,20.471 C 30.69,12.101 23.896,5.307 15.526,5.307 C 7.156,5.307 0.362,12.101 0.362,20.471 C 0.362,28.841 7.156,35.635 15.526,35.635 C 23.896,35.635 30.69,28.841 30.69,20.471 Z" stroke-width="0.603" marker-start="none" marker-end="none" stroke-miterlimit="79.8403193612775" fill="url(#LinearGradient_1)"/>
     <path d="M 30.276,20.471 C 30.276,12.329 23.668,5.721 15.526,5.721 C 7.384,5.721 0.776,12.329 0.776,20.471 C 0.776,28.613 7.384,35.221 15.526,35.221 C 23.668,35.221 30.276,28.613 30.276,20.471 Z" stroke-width="0.579" marker-start="none" marker-end="none" stroke-miterlimit="79.8403193612775" fill="url(#LinearGradient_2)"/>
     <path d="M 15.524,6.562 C 7.848,6.562 1.617,12.793 1.617,20.471 C 1.617,28.147 7.848,34.378 15.524,34.378 C 23.201,34.378 29.432,28.147 29.432,20.471 C 29.432,12.793 23.201,6.562 15.524,6.562 Z M 15.524,6.811 C 23.063,6.811 29.184,12.93 29.184,20.471 C 29.184,28.01 23.063,34.129 15.524,34.129 C 7.985,34.129 1.866,28.01 1.866,20.471 C 1.866,12.93 7.985,6.811 15.524,6.811 Z" stroke-width="0.629" fill="#ffffff" fill-rule="evenodd" marker-start="none" marker-end="none" stroke-miterlimit="79.8403193612775"/>
     <path d="M 18.843,23.942 L 17.032,23.94 L 17.032,11.25 L 14.088,11.25 L 14.088,23.94 L 12.205,23.94 L 15.524,29.69 L 18.843,23.942 Z" fill="#ffffff" stroke-linejoin="miter" stroke-width="0.491" marker-start="none" marker-end="none" stroke-miterlimit="79.8403193612775"/>
    </g>
   </g>
  </g>
 </g>
</svg>
