<?xml version="1.0" standalone="no"?>
<!DOCTYPE svg PUBLIC "-//W3C//DTD SVG 1.1//EN" "http://www.w3.org/Graphics/SVG/1.1/DTD/svg11.dtd">
<!--Generator: Xara Designer (www.xara.com), SVG filter version: 6.1.0.16-->
<svg stroke-width="0.501" stroke-linejoin="bevel" fill-rule="evenodd" xmlns:xlink="http://www.w3.org/1999/xlink" xmlns="http://www.w3.org/2000/svg" version="1.1" overflow="visible" width="36pt" height="36pt" viewBox="0 0 36 36">
 <defs>
  <linearGradient id="LinearGradient" gradientUnits="userSpaceOnUse" x1="0" y1="0" x2="43.896" y2="-44.753" gradientTransform="translate(-4.417 42.071)">
   <stop offset="0" stop-color="#ffffff"/>
   <stop offset="1" stop-color="#b2b2b2"/>
  </linearGradient>
  <linearGradient id="LinearGradient_1" gradientUnits="userSpaceOnUse" x1="0" y1="0" x2="-24.943" y2="36.191" gradientTransform="translate(28.245 -1.222)">
   <stop offset="0" stop-color="#cccccc"/>
   <stop offset="1" stop-color="#ffffff"/>
  </linearGradient>
  <linearGradient id="LinearGradient_2" gradientUnits="userSpaceOnUse" x1="0" y1="0" x2="22.802" y2="-36.145" gradientTransform="translate(-0.805 38.189)">
   <stop offset="0" stop-color="#0069c5"/>
   <stop offset="1" stop-color="#0069c5"/>
  </linearGradient>
 </defs>
 <g id="Document" fill="none" stroke="black" font-family="Times New Roman" font-size="16" transform="scale(1 -1)">
  <g id="Spread" transform="translate(0 -36)">
   <g id="Layer 1">
    <g id="Group" stroke="none">
     <path d="M 0.069,20.846 C 0.069,29.417 7.025,36.373 15.596,36.373 C 24.167,36.373 31.123,29.417 31.123,20.846 C 31.123,12.275 24.167,5.319 15.596,5.319 C 7.025,5.319 0.069,12.275 0.069,20.846 Z" stroke-width="0.619" marker-start="none" marker-end="none" stroke-miterlimit="79.8403193612775" fill="url(#LinearGradient)"/>
     <path d="M 30.758,20.844 C 30.758,12.474 23.964,5.68 15.594,5.68 C 7.224,5.68 0.43,12.474 0.43,20.844 C 0.43,29.214 7.224,36.008 15.594,36.008 C 23.964,36.008 30.758,29.214 30.758,20.844 Z" stroke-width="0.602" marker-start="none" marker-end="none" stroke-miterlimit="79.8403193612775" fill="url(#LinearGradient_1)"/>
     <path d="M 30.344,20.844 C 30.344,12.702 23.736,6.094 15.594,6.094 C 7.452,6.094 0.844,12.702 0.844,20.844 C 0.844,28.986 7.452,35.594 15.594,35.594 C 23.736,35.594 30.344,28.986 30.344,20.844 Z" stroke-width="0.58" marker-start="none" marker-end="none" stroke-miterlimit="79.8403193612775" fill="url(#LinearGradient_2)"/>
     <path d="M 15.592,6.935 C 7.916,6.935 1.685,13.166 1.685,20.844 C 1.685,28.52 7.916,34.751 15.592,34.751 C 23.269,34.751 29.5,28.52 29.5,20.844 C 29.5,13.166 23.269,6.935 15.592,6.935 Z M 15.592,7.184 C 23.131,7.184 29.252,13.304 29.252,20.844 C 29.252,28.383 23.131,34.502 15.592,34.502 C 8.054,34.502 1.934,28.383 1.934,20.844 C 1.934,13.304 8.054,7.184 15.592,7.184 Z" stroke-width="0.629" fill="#ffffff" fill-rule="evenodd" marker-start="none" marker-end="none" stroke-miterlimit="79.8403193612775"/>
     <path d="M 19.849,10.303 L 14.375,11.917 L 18.511,15.848 L 18.795,14.67 L 19.03,14.796 C 20.722,15.776 22.036,17.411 22.556,19.456 C 22.62,19.708 22.67,19.961 22.707,20.21 L 22.747,20.616 L 25.486,20.461 L 25.423,19.81 C 25.372,19.467 25.303,19.122 25.215,18.78 C 24.436,15.711 22.346,13.319 19.695,12.047 L 19.455,11.942 L 19.47,11.875 L 19.849,10.303 Z M 9.678,12.568 L 8.732,13.424 C 6.224,15.745 4.95,19.25 5.592,22.792 L 5.711,23.341 L 5.595,23.399 L 4.143,24.113 L 6.637,25.784 L 6.708,25.911 L 6.77,25.872 L 8.885,27.288 L 9.264,21.593 L 8.259,22.087 L 8.228,21.88 C 7.957,19.683 8.678,17.538 10.083,15.958 C 10.474,15.444 10.973,15.09 11.498,14.776 L 9.678,12.568 Z M 24.943,23.911 L 19.417,25.334 L 20.509,26.448 L 20.652,26.593 L 20.246,26.969 C 20.051,27.117 19.849,27.255 19.638,27.385 L 19.502,27.464 L 19.482,27.428 L 18.878,27.784 C 17.991,28.194 17.009,28.439 15.972,28.476 C 14.934,28.511 13.936,28.335 13.025,27.984 L 12.733,27.838 L 11.744,30.416 L 12.044,30.547 C 12.356,30.666 12.674,30.771 12.999,30.861 L 13.838,31.046 L 13.837,31.061 L 14.156,31.126 C 15.475,31.326 16.856,31.272 18.23,30.923 C 19.732,30.542 21.071,29.846 22.198,28.924 L 22.598,28.576 L 23.413,29.408 L 24.943,23.911 Z" fill="#ffffff" stroke-width="0.629" marker-start="none" marker-end="none" stroke-miterlimit="79.8403193612775"/>
    </g>
   </g>
  </g>
 </g>
</svg>
