<?xml version="1.0" standalone="no"?>
<!DOCTYPE svg PUBLIC "-//W3C//DTD SVG 1.1//EN" "http://www.w3.org/Graphics/SVG/1.1/DTD/svg11.dtd">
<!--Generator: Xara Designer (www.xara.com), SVG filter version: 6.1.0.16-->
<svg stroke-width="0.501" stroke-linejoin="bevel" fill-rule="evenodd" xmlns:xlink="http://www.w3.org/1999/xlink" xmlns="http://www.w3.org/2000/svg" version="1.1" overflow="visible" width="54.378pt" height="36pt" viewBox="0 0 54.378 36">
 <defs>
	</defs>
 <g id="Document" fill="none" stroke="black" font-family="Times New Roman" font-size="16" transform="scale(1 -1)">
  <g id="Spread" transform="translate(0 -36)">
   <g id="Layer 1">
    <path d="M 26.844,14.324 L 47.982,35.465 C 48.335,35.818 48.753,36 49.215,36 C 49.68,36 50.098,35.818 50.456,35.465 L 53.143,32.775 C 53.501,32.415 53.683,32.001 53.683,31.535 C 53.683,31.07 53.501,30.659 53.143,30.299 L 28.082,5.234 C 27.724,4.873 27.31,4.694 26.844,4.694 C 26.373,4.694 25.966,4.873 25.602,5.234 L 0.538,30.299 C 0.182,30.659 0,31.07 0,31.535 C 0,32.001 0.182,32.415 0.538,32.775 L 3.228,35.46 C 3.582,35.818 3.999,36 4.465,36 C 4.93,36 5.344,35.818 5.704,35.46 L 26.844,14.324 Z" stroke="none" fill="#ff3400" stroke-width="0.179" fill-rule="nonzero" stroke-linejoin="miter" marker-start="none" marker-end="none" stroke-miterlimit="79.8403193612775"/>
   </g>
  </g>
 </g>
</svg>
