<?xml version="1.0" standalone="no"?>
<!DOCTYPE svg PUBLIC "-//W3C//DTD SVG 1.1//EN" "http://www.w3.org/Graphics/SVG/1.1/DTD/svg11.dtd">
<!--Generator: Xara Designer (www.xara.com), SVG filter version: 6.1.0.16-->
<svg stroke-width="0.501" stroke-linejoin="bevel" fill-rule="evenodd" xmlns:xlink="http://www.w3.org/1999/xlink" xmlns="http://www.w3.org/2000/svg" version="1.1" overflow="visible" width="36pt" height="59.771pt" viewBox="0 0 36 59.771">
 <defs>
	</defs>
 <g id="Document" fill="none" stroke="black" font-family="Times New Roman" font-size="16" transform="scale(1 -1)">
  <g id="Spread" transform="translate(0 -59.771)">
   <g id="Layer 1">
    <path d="M 23.742,30.376 L 0.585,53.528 C 0.196,53.917 0,54.373 0,54.878 C 0,55.389 0.196,55.844 0.585,56.238 L 3.533,59.181 C 3.927,59.575 4.377,59.771 4.887,59.771 C 5.398,59.771 5.849,59.575 6.243,59.181 L 33.697,31.732 C 34.091,31.338 34.287,30.887 34.287,30.376 C 34.287,29.861 34.091,29.416 33.697,29.017 L 6.243,1.561 C 5.849,1.174 5.398,0.971 4.887,0.971 C 4.377,0.971 3.927,1.174 3.533,1.561 L 0.59,4.509 C 0.196,4.898 0,5.355 0,5.864 C 0,6.374 0.196,6.827 0.59,7.219 L 23.742,30.376 Z" stroke="none" stroke-linejoin="miter" fill="#0071cb" stroke-width="0.196" fill-rule="nonzero" marker-start="none" marker-end="none" stroke-miterlimit="79.8403193612775"/>
   </g>
  </g>
 </g>
</svg>
